<?xml version="1.0" standalone="no"?>
<!DOCTYPE svg PUBLIC "-//W3C//DTD SVG 20010904//EN"
 "http://www.w3.org/TR/2001/REC-SVG-20010904/DTD/svg10.dtd">
<svg version="1.0" xmlns="http://www.w3.org/2000/svg"
 width="178.000000pt" height="102.000000pt" viewBox="0 0 178.000000 102.000000"
 preserveAspectRatio="xMidYMid meet">

<g transform="translate(0.000000,102.000000) scale(0.100000,-0.100000)"
fill="#000000" stroke="none">
<path d="M405 956 c-287 -70 -409 -424 -218 -636 58 -65 114 -97 199 -115 66
-14 234 -21 234 -10 0 3 -13 32 -29 64 l-30 58 -83 5 c-164 9 -257 97 -258
243 0 114 81 224 192 261 84 28 197 16 293 -29 43 -21 79 -36 80 -35 17 24 66
120 63 123 -13 13 -153 59 -216 71 -88 17 -159 17 -227 0z"/>
<path d="M1200 954 c-67 -14 -210 -62 -210 -71 0 -5 50 -93 62 -110 7 -8 30
-2 85 25 95 45 208 55 292 27 62 -20 142 -90 170 -148 49 -101 14 -247 -72
-306 -59 -39 -100 -51 -178 -51 l-69 0 -30 -60 c-16 -33 -30 -62 -30 -65 0
-11 168 -4 234 10 122 26 206 92 260 205 27 58 30 75 30 155 0 80 -3 97 -31
157 -91 195 -283 282 -513 232z"/>
<path d="M154 106 c-11 -28 1 -51 26 -53 25 -3 25 -3 3 7 -13 5 -23 18 -23 29
0 12 8 21 23 24 l22 4 -23 2 c-12 0 -25 -5 -28 -13z"/>
<path d="M230 85 c0 -30 3 -35 23 -34 16 1 18 2 5 6 -21 5 -23 19 -5 26 10 4
10 6 0 6 -19 1 -16 19 5 24 13 4 11 5 -5 6 -20 1 -23 -4 -23 -34z"/>
<path d="M301 83 c1 -37 1 -38 8 -8 l8 30 13 -27 c18 -39 30 -35 29 10 -1 32
-2 34 -8 12 l-7 -25 -12 23 c-19 33 -32 27 -31 -15z"/>
<path d="M398 113 c6 -2 12 -18 12 -34 0 -41 17 -36 22 6 4 32 2 35 -22 34
-14 0 -19 -3 -12 -6z"/>
<path d="M470 85 c0 -35 20 -51 20 -17 1 16 1 16 14 0 7 -10 17 -18 21 -18 4
0 3 6 -3 13 -6 7 -9 23 -5 35 4 19 1 22 -21 22 -23 0 -26 -4 -26 -35z m40 15
c0 -5 -4 -10 -10 -10 -5 0 -10 5 -10 10 0 6 5 10 10 10 6 0 10 -4 10 -10z"/>
<path d="M561 89 c-14 -41 -14 -41 9 -27 17 11 22 10 30 -2 13 -20 13 1 0 34
-13 35 -26 33 -39 -5z m25 -6 c-10 -10 -19 5 -10 18 6 11 8 11 12 0 2 -7 1
-15 -2 -18z"/>
<path d="M642 88 c-2 -34 1 -38 21 -37 15 1 17 3 5 6 -10 2 -18 17 -21 36 -4
31 -4 31 -5 -5z"/>
<path d="M760 94 c-13 -33 -13 -54 0 -34 8 12 13 13 30 2 23 -14 23 -14 9 27
-13 38 -26 40 -39 5z m30 -5 c0 -5 -4 -9 -10 -9 -5 0 -10 7 -10 16 0 8 5 12
10 9 6 -3 10 -10 10 -16z"/>
<path d="M842 88 c-2 -34 1 -38 21 -37 15 1 17 3 5 6 -10 2 -18 17 -21 36 -4
31 -4 31 -5 -5z"/>
<path d="M912 88 c-2 -34 1 -38 21 -37 15 1 17 3 5 6 -10 2 -18 17 -21 36 -4
31 -4 31 -5 -5z"/>
<path d="M980 85 c0 -19 5 -35 10 -35 6 0 10 16 10 35 0 19 -4 35 -10 35 -5 0
-10 -16 -10 -35z"/>
<path d="M1035 88 c-14 -34 -11 -53 5 -28 8 12 13 13 30 2 23 -14 23 -14 9 27
-14 40 -26 39 -44 -1z m29 7 c3 -8 1 -15 -4 -15 -6 0 -10 7 -10 15 0 8 2 15 4
15 2 0 6 -7 10 -15z"/>
<path d="M1121 83 c1 -36 2 -37 8 -9 l6 30 12 -27 c18 -38 33 -33 32 11 -1 35
-2 36 -8 8 l-6 -30 -12 27 c-18 38 -33 33 -32 -10z"/>
<path d="M1215 100 c-8 -24 10 -50 34 -49 13 1 13 2 -1 6 -11 3 -18 14 -18 28
0 14 7 25 18 28 13 4 12 5 -5 6 -14 1 -24 -6 -28 -19z"/>
<path d="M1300 85 c0 -27 4 -35 18 -35 14 0 15 2 2 10 -12 8 -13 11 -1 19 11
7 11 9 0 14 -12 4 -11 7 1 16 13 9 13 11 -2 11 -14 0 -18 -8 -18 -35z"/>
<path d="M1407 100 c-7 -26 15 -53 39 -47 17 4 16 5 -3 6 -17 1 -23 7 -23 25
0 18 7 26 23 29 20 4 19 4 -4 6 -19 1 -28 -5 -32 -19z"/>
<path d="M1491 89 c-14 -42 -15 -41 10 -27 17 10 23 10 26 1 3 -7 9 -13 13
-13 12 0 -15 63 -28 68 -5 1 -15 -11 -21 -29z m29 6 c0 -8 -4 -15 -10 -15 -5
0 -7 7 -4 15 4 8 8 15 10 15 2 0 4 -7 4 -15z"/>
<path d="M1570 85 c0 -35 20 -51 20 -17 1 16 1 16 14 0 7 -10 17 -18 21 -18 4
0 3 6 -3 13 -6 7 -9 23 -5 35 4 19 1 22 -21 22 -23 0 -26 -4 -26 -35z m40 15
c0 -5 -4 -10 -10 -10 -5 0 -10 5 -10 10 0 6 5 10 10 10 6 0 10 -4 10 -10z"/>
<path d="M1660 85 c0 -30 3 -35 23 -34 16 1 18 2 5 6 -21 5 -24 23 -5 23 8 0
7 4 -3 10 -13 9 -13 11 0 20 13 8 12 10 -2 10 -14 0 -18 -8 -18 -35z"/>
</g>
</svg>
